<svg xmlns="http://www.w3.org/2000/svg" width="166" height="54" viewBox="0 0 166 54" fill="none"><rect width="166" height="53.5767" rx="3" fill="black"></rect><path d="M64.4897 39.0868L62.9725 35.1883H56.7855L55.3077 39.0868H53.2388L58.7953 25.1269H61.0218L66.5783 39.0868H64.4897ZM59.8593 27.1352L57.4751 33.3965H62.2829L59.8593 27.1352ZM70.0931 42.8278H68.2606V29.6161H70.0537V31.0928C70.3295 30.594 70.7433 30.1871 71.295 29.8721C71.8468 29.557 72.4904 29.3995 73.226 29.3995C74.5922 29.3995 75.6562 29.8655 76.4181 30.7975C77.1931 31.7295 77.5806 32.9108 77.5806 34.3416C77.5806 35.7855 77.1799 36.98 76.3786 37.9251C75.5905 38.8702 74.5199 39.3428 73.1669 39.3428C72.4707 39.3428 71.8533 39.1984 71.3147 38.9096C70.7762 38.6208 70.369 38.2533 70.0931 37.807V42.8278ZM75.689 34.3416C75.689 33.3834 75.4329 32.5958 74.9206 31.9789C74.4214 31.3488 73.7449 31.0338 72.8911 31.0338C72.0504 31.0338 71.3673 31.3488 70.8419 31.9789C70.3295 32.5958 70.0734 33.3834 70.0734 34.3416C70.0734 35.3261 70.3295 36.1334 70.8419 36.7634C71.3673 37.3804 72.0504 37.6888 72.8911 37.6888C73.7318 37.6888 74.4083 37.3804 74.9206 36.7634C75.4329 36.1334 75.689 35.3261 75.689 34.3416ZM81.7731 42.8278H79.9406V29.6161H81.7337V31.0928C82.0095 30.594 82.4233 30.1871 82.975 29.8721C83.5267 29.557 84.1704 29.3995 84.906 29.3995C86.2721 29.3995 87.3362 29.8655 88.098 30.7975C88.8731 31.7295 89.2606 32.9108 89.2606 34.3416C89.2606 35.7855 88.8599 36.98 88.0586 37.9251C87.2705 38.8702 86.1999 39.3428 84.8469 39.3428C84.1507 39.3428 83.5333 39.1984 82.9947 38.9096C82.4562 38.6208 82.049 38.2533 81.7731 37.807V42.8278ZM87.369 34.3416C87.369 33.3834 87.1128 32.5958 86.6005 31.9789C86.1014 31.3488 85.4249 31.0338 84.5711 31.0338C83.7304 31.0338 83.0473 31.3488 82.5218 31.9789C82.0095 32.5958 81.7534 33.3834 81.7534 34.3416C81.7534 35.3261 82.0095 36.1334 82.5218 36.7634C83.0473 37.3804 83.7304 37.6888 84.5711 37.6888C85.4118 37.6888 86.0882 37.3804 86.6005 36.7634C87.1128 36.1334 87.369 35.3261 87.369 34.3416ZM105.65 28.2969L103.916 28.9073C103.824 28.3035 103.529 27.7587 103.03 27.2731C102.53 26.7742 101.841 26.5248 100.961 26.5248C100.186 26.5248 99.542 26.748 99.0297 27.1943C98.5169 27.6406 98.2607 28.1919 98.2607 28.8482C98.2607 29.3601 98.4118 29.7933 98.7139 30.1477C99.0297 30.5021 99.4763 30.745 100.054 30.8762L102.143 31.3291C103.299 31.5785 104.192 32.0511 104.823 32.7468C105.453 33.4293 105.768 34.2629 105.768 35.2473C105.768 36.3762 105.322 37.3476 104.429 38.1614C103.535 38.9752 102.373 39.3821 100.941 39.3821C99.3778 39.3821 98.1491 38.9752 97.2558 38.1614C96.3757 37.3344 95.8634 36.3565 95.7189 35.2276L97.5711 34.637C97.6499 35.477 97.9783 36.1859 98.5563 36.7634C99.1348 37.341 99.9229 37.6298 100.921 37.6298C101.841 37.6298 102.55 37.4197 103.049 36.9997C103.548 36.5797 103.798 36.048 103.798 35.4049C103.798 34.8798 103.621 34.4269 103.266 34.0463C102.911 33.6525 102.392 33.3834 101.709 33.239L99.7193 32.8058C98.6811 32.5827 97.8535 32.1429 97.2361 31.4866C96.6188 30.8303 96.3101 29.9968 96.3101 28.986C96.3101 27.8834 96.7567 26.9186 97.6499 26.0917C98.5563 25.2516 99.6471 24.8315 100.921 24.8315C102.353 24.8315 103.45 25.1794 104.212 25.8751C104.974 26.5708 105.453 27.3781 105.65 28.2969ZM110.517 26.6233V29.6161H112.566V31.2897H110.517V36.2121C110.517 36.6584 110.616 36.9866 110.813 37.1966C111.023 37.4066 111.364 37.5116 111.837 37.5116C112.113 37.5116 112.356 37.4854 112.566 37.4329V39.008C112.251 39.1262 111.831 39.1852 111.305 39.1852C110.491 39.1852 109.847 38.949 109.374 38.4764C108.901 38.0039 108.665 37.341 108.665 36.4878V31.2897H106.852V29.6161H107.364C107.85 29.6161 108.212 29.4848 108.448 29.2223C108.698 28.9467 108.822 28.5923 108.822 28.1591V26.6233H110.517ZM116.893 36.8422C117.471 37.4329 118.173 37.7282 119.001 37.7282C119.829 37.7282 120.525 37.4329 121.09 36.8422C121.668 36.2384 121.957 35.4048 121.957 34.3416C121.957 33.2915 121.668 32.4711 121.09 31.8804C120.525 31.2766 119.829 30.9747 119.001 30.9747C118.173 30.9747 117.471 31.2766 116.893 31.8804C116.328 32.4711 116.045 33.2915 116.045 34.3416C116.045 35.4048 116.328 36.2384 116.893 36.8422ZM115.513 30.7581C116.433 29.7999 117.595 29.3208 119.001 29.3208C120.407 29.3208 121.562 29.7999 122.469 30.7581C123.388 31.7032 123.848 32.8977 123.848 34.3416C123.848 35.7986 123.395 37.0063 122.489 37.9645C121.582 38.9096 120.42 39.3821 119.001 39.3821C117.582 39.3821 116.42 38.9096 115.513 37.9645C114.607 37.0063 114.154 35.7986 114.154 34.3416C114.154 32.8977 114.607 31.7032 115.513 30.7581ZM131.479 29.5177V31.4866C131.203 31.4472 130.934 31.4276 130.671 31.4276C128.937 31.4276 128.07 32.3989 128.07 34.3416V39.0868H126.218V29.6161H128.031V31.27C128.609 30.0624 129.555 29.4586 130.868 29.4586C131.079 29.4586 131.282 29.4783 131.479 29.5177ZM134.559 33.3768H139.741C139.714 32.668 139.478 32.0904 139.031 31.6441C138.585 31.1847 137.954 30.955 137.14 30.955C136.404 30.955 135.8 31.1978 135.327 31.6835C134.854 32.1561 134.598 32.7205 134.559 33.3768ZM140.017 35.838L141.613 36.3893C141.337 37.2688 140.824 37.9907 140.076 38.5552C139.327 39.1065 138.421 39.3821 137.357 39.3821C136.03 39.3821 134.9 38.9293 133.967 38.0236C133.048 37.1047 132.588 35.8708 132.588 34.3219C132.588 32.878 133.035 31.6835 133.928 30.7384C134.821 29.7933 135.885 29.3208 137.12 29.3208C138.552 29.3208 139.668 29.7736 140.47 30.6793C141.271 31.5719 141.672 32.773 141.672 34.2825C141.672 34.5188 141.659 34.7157 141.632 34.8732H134.499C134.513 35.7133 134.788 36.4025 135.327 36.9406C135.879 37.4788 136.555 37.7479 137.357 37.7479C138.71 37.7479 139.596 37.1113 140.017 35.838Z" fill="white"></path><path opacity="0.6" d="M54.6853 16.5618V13.1639H55.5185C56.3892 13.1639 57.1098 13.7115 57.1098 14.8666C57.1098 16.0217 56.3817 16.5618 55.511 16.5618H54.6853ZM55.5485 17.5219C57.0648 17.5219 58.1832 16.5468 58.1832 14.8666C58.1832 13.1864 57.0723 12.2038 55.556 12.2038H53.6494V17.5219H55.5485ZM60.7776 14.8591C60.7776 13.659 61.6183 13.0889 62.4365 13.0889C63.2622 13.0889 64.1029 13.659 64.1029 14.8591C64.1029 16.0592 63.2622 16.6293 62.4365 16.6293C61.6183 16.6293 60.7776 16.0592 60.7776 14.8591ZM59.7042 14.8666C59.7042 16.5768 60.9953 17.6344 62.4365 17.6344C63.8852 17.6344 65.1763 16.5768 65.1763 14.8666C65.1763 13.1489 63.8852 12.0913 62.4365 12.0913C60.9953 12.0913 59.7042 13.1489 59.7042 14.8666ZM71.8283 15.8792L70.6423 12.2038H69.5689L68.3905 15.8642L67.4146 12.2038H66.3187L67.7975 17.5219H68.8784L70.0944 13.734L71.3104 17.5219H72.3763L73.8475 12.2038H72.7891L71.8283 15.8792ZM80.0277 17.5219V12.2038H78.9918V15.7217L76.7775 12.2038H75.4864V17.5219H76.5222V13.749L78.9393 17.5219H80.0277ZM85.5869 17.5219V16.5318H83.2149V12.2038H82.179V17.5219H85.5869ZM87.8997 14.8591C87.8997 13.659 88.7404 13.0889 89.5586 13.0889C90.3843 13.0889 91.225 13.659 91.225 14.8591C91.225 16.0592 90.3843 16.6293 89.5586 16.6293C88.7404 16.6293 87.8997 16.0592 87.8997 14.8591ZM86.8263 14.8666C86.8263 16.5768 88.1174 17.6344 89.5586 17.6344C91.0073 17.6344 92.2984 16.5768 92.2984 14.8666C92.2984 13.1489 91.0073 12.0913 89.5586 12.0913C88.1174 12.0913 86.8263 13.1489 86.8263 14.8666ZM97.4887 17.5219H98.6146L96.5879 12.2038H95.3869L93.3452 17.5219H94.4412L94.884 16.3068H97.0458L97.4887 17.5219ZM95.9649 13.3514L96.7005 15.3617H95.2293L95.9649 13.3514ZM101.269 16.5618V13.1639H102.102C102.973 13.1639 103.694 13.7115 103.694 14.8666C103.694 16.0217 102.965 16.5618 102.095 16.5618H101.269ZM102.132 17.5219C103.648 17.5219 104.767 16.5468 104.767 14.8666C104.767 13.1864 103.656 12.2038 102.14 12.2038H100.233V17.5219H102.132ZM110.155 14.8591C110.155 13.659 110.995 13.0889 111.813 13.0889C112.639 13.0889 113.48 13.659 113.48 14.8591C113.48 16.0592 112.639 16.6293 111.813 16.6293C110.995 16.6293 110.155 16.0592 110.155 14.8591ZM109.081 14.8666C109.081 16.5768 110.372 17.6344 111.813 17.6344C113.262 17.6344 114.553 16.5768 114.553 14.8666C114.553 13.1489 113.262 12.0913 111.813 12.0913C110.372 12.0913 109.081 13.1489 109.081 14.8666ZM120.931 17.5219V12.2038H119.895V15.7217L117.68 12.2038H116.389V17.5219H117.425V13.749L119.842 17.5219H120.931ZM129.794 13.1864V12.2038H125.388V13.1864H127.069V17.5219H128.112V13.1864H129.794ZM135.86 17.5219V12.2038H134.816V14.3415H132.497V12.2038H131.461V17.5219H132.497V15.3166H134.816V17.5219H135.86ZM141.347 17.5219V16.5468H139.05V15.3166H141.129V14.3941H139.05V13.1789H141.347V12.2038H138.014V17.5219H141.347Z" fill="white"></path><path d="M40.7272 33.4768C40.1178 34.8251 39.827 35.427 39.0424 36.6183C37.9493 38.282 36.4069 40.3541 34.4958 40.3716C32.7981 40.3875 32.3618 39.2676 30.0571 39.2811C27.7525 39.2946 27.2722 40.3916 25.5745 40.3757C23.6633 40.3588 22.2032 38.4876 21.1088 36.8228C18.05 32.17 17.7305 26.7102 19.617 23.8078C20.9576 21.7439 23.0734 20.5379 25.062 20.5379C27.0869 20.5379 28.3601 21.6472 30.0349 21.6472C31.6592 21.6472 32.6486 20.5361 34.9901 20.5361C36.76 20.5361 38.6354 21.499 39.9718 23.1625C35.593 25.5599 36.305 31.8061 40.7272 33.4768Z" fill="white"></path><path d="M33.4593 17.6246C34.3101 16.5334 34.9552 14.994 34.7206 13.4194C33.3308 13.5144 31.7064 14.3981 30.7576 15.5496C29.8962 16.5944 29.1848 18.1444 29.4616 19.6509C30.9775 19.6984 32.5474 18.793 33.4593 17.6246Z" fill="white"></path></svg>