<svg xmlns="http://www.w3.org/2000/svg" width="166" height="51" viewBox="0 0 166 51" fill="none"><rect x="0.85083" y="0.361816" width="165.149" height="49.8718" rx="3" fill="black"></rect><path d="M65.2609 36.7451H63.8114L63.6463 34.9123C63.3283 35.4865 62.8084 35.9814 62.0868 36.3968C61.3651 36.8123 60.4967 37.02 59.4814 37.02C58.3684 37.02 57.3409 36.7695 56.3991 36.2685C55.4572 35.7553 54.6805 34.9734 54.0689 33.9225C53.4696 32.8717 53.1699 31.6438 53.1699 30.2386C53.1699 28.8335 53.4879 27.6055 54.124 26.5547C54.76 25.5039 55.5551 24.728 56.5092 24.227C57.4754 23.7261 58.509 23.4756 59.6099 23.4756C61.0043 23.4756 62.2152 23.836 63.2427 24.5569C64.2823 25.2656 64.9918 26.2126 65.371 27.3978L63.738 28.0942C63.4445 27.1534 62.9307 26.4264 62.1969 25.9132C61.4752 25.3878 60.6129 25.1251 59.6099 25.1251C58.35 25.1251 57.2675 25.5711 56.3624 26.4631C55.4572 27.355 55.0047 28.6135 55.0047 30.2386C55.0047 31.8759 55.445 33.1467 56.3257 34.0508C57.2186 34.9428 58.2888 35.3888 59.5365 35.3888C60.2214 35.3888 60.8269 35.2788 61.3529 35.0589C61.8911 34.8389 62.3069 34.5518 62.6005 34.1975C62.9063 33.8309 63.1326 33.4643 63.2793 33.0978C63.4384 32.7312 63.5301 32.3647 63.5546 31.9981H59.0411V30.3852H65.2609V36.7451ZM69.6578 34.6557C70.196 35.2055 70.8504 35.4804 71.621 35.4804C72.3915 35.4804 73.0398 35.2055 73.5658 34.6557C74.104 34.0936 74.3731 33.3177 74.3731 32.328C74.3731 31.3505 74.104 30.5868 73.5658 30.037C73.0398 29.475 72.3915 29.1939 71.621 29.1939C70.8504 29.1939 70.196 29.475 69.6578 30.037C69.1318 30.5868 68.8688 31.3505 68.8688 32.328C68.8688 33.3177 69.1318 34.0936 69.6578 34.6557ZM68.3735 28.9923C69.2297 28.1004 70.3122 27.6544 71.621 27.6544C72.9297 27.6544 74.0061 28.1004 74.8501 28.9923C75.7063 29.8721 76.1344 30.984 76.1344 32.328C76.1344 33.6843 75.7124 34.8084 74.8685 35.7004C74.0245 36.5801 72.942 37.02 71.621 37.02C70.2999 37.02 69.2174 36.5801 68.3735 35.7004C67.5295 34.8084 67.1075 33.6843 67.1075 32.328C67.1075 30.984 67.5295 29.8721 68.3735 28.9923ZM80.1574 34.6557C80.6956 35.2055 81.35 35.4804 82.1206 35.4804C82.8912 35.4804 83.5394 35.2055 84.0654 34.6557C84.6036 34.0936 84.8727 33.3177 84.8727 32.328C84.8727 31.3505 84.6036 30.5868 84.0654 30.037C83.5394 29.475 82.8912 29.1939 82.1206 29.1939C81.35 29.1939 80.6956 29.475 80.1574 30.037C79.6314 30.5868 79.3685 31.3505 79.3685 32.328C79.3685 33.3177 79.6314 34.0936 80.1574 34.6557ZM78.8731 28.9923C79.7293 28.1004 80.8118 27.6544 82.1206 27.6544C83.4294 27.6544 84.5057 28.1004 85.3497 28.9923C86.2059 29.8721 86.634 30.984 86.634 32.328C86.634 33.6843 86.212 34.8084 85.3681 35.7004C84.5241 36.5801 83.4416 37.02 82.1206 37.02C80.7996 37.02 79.7171 36.5801 78.8731 35.7004C78.0291 34.8084 77.6071 33.6843 77.6071 32.328C77.6071 30.984 78.0291 29.8721 78.8731 28.9923ZM88.1985 37.2216L89.8681 36.8367C89.9292 37.4599 90.18 37.973 90.6203 38.3763C91.0607 38.7917 91.6111 38.9994 92.2716 38.9994C94.0696 38.9994 94.9687 38.0463 94.9687 36.1402V34.8756C94.7485 35.3033 94.3999 35.6515 93.9229 35.9203C93.458 36.1891 92.9076 36.3235 92.2716 36.3235C91.0974 36.3235 90.1249 35.9264 89.3543 35.1322C88.596 34.3258 88.2168 33.2994 88.2168 32.0531C88.2168 30.8434 88.596 29.8293 89.3543 29.0106C90.1127 28.1798 91.0851 27.7643 92.2716 27.7643C93.6171 27.7643 94.5222 28.2286 94.987 29.1573V27.9293H96.6935V36.0852C96.6935 36.6717 96.614 37.2155 96.455 37.7164C96.3082 38.2296 96.0697 38.7 95.7393 39.1277C95.409 39.5554 94.9442 39.8914 94.3448 40.1357C93.7577 40.3801 93.0666 40.5023 92.2716 40.5023C91.183 40.5023 90.2595 40.1907 89.5011 39.5676C88.7428 38.9566 88.3085 38.1746 88.1985 37.2216ZM92.5284 34.8756C93.2746 34.8756 93.88 34.619 94.3448 34.1058C94.8096 33.5804 95.042 32.8962 95.042 32.0531C95.042 31.21 94.8096 30.5319 94.3448 30.0187C93.88 29.4933 93.2746 29.2306 92.5284 29.2306C91.7701 29.2306 91.1524 29.4872 90.6754 30.0004C90.2106 30.5135 89.9782 31.1978 89.9782 32.0531C89.9782 32.9206 90.2044 33.611 90.657 34.1242C91.1218 34.6251 91.7456 34.8756 92.5284 34.8756ZM101.172 36.7451H99.4473V23.4756H101.172V36.7451ZM105.225 31.4299H110.05C110.026 30.7701 109.806 30.2325 109.39 29.8171C108.974 29.3894 108.387 29.1756 107.629 29.1756C106.944 29.1756 106.381 29.4016 105.941 29.8537C105.5 30.2936 105.262 30.819 105.225 31.4299ZM110.307 33.7209L111.793 34.2341C111.537 35.0528 111.06 35.7248 110.362 36.2502C109.665 36.7634 108.821 37.02 107.83 37.02C106.595 37.02 105.543 36.5984 104.675 35.7553C103.818 34.9 103.39 33.7515 103.39 32.3097C103.39 30.9656 103.806 29.8537 104.638 28.974C105.47 28.0942 106.46 27.6544 107.61 27.6544C108.943 27.6544 109.983 28.0759 110.729 28.919C111.475 29.7499 111.848 30.8679 111.848 32.273C111.848 32.493 111.836 32.6762 111.812 32.8229H105.17C105.182 33.6049 105.439 34.2463 105.941 34.7473C106.454 35.2483 107.084 35.4988 107.83 35.4988C109.09 35.4988 109.916 34.9061 110.307 33.7209ZM120.619 29.8171H123.224C123.994 29.8171 124.606 29.6216 125.059 29.2306C125.511 28.8274 125.737 28.2897 125.737 27.6177C125.737 26.9335 125.511 26.3897 125.059 25.9865C124.606 25.5711 123.994 25.3634 123.224 25.3634H120.619V29.8171ZM123.554 31.4299H120.619V36.7451H118.82V23.7505H123.554C124.741 23.7505 125.707 24.1171 126.453 24.8502C127.199 25.5833 127.572 26.4997 127.572 27.5994C127.572 28.7113 127.199 29.6277 126.453 30.3486C125.707 31.0695 124.741 31.4299 123.554 31.4299ZM131.13 36.7451H129.405V23.4756H131.13V36.7451ZM133.513 34.3807C133.513 33.6232 133.758 33.0184 134.247 32.5663C134.736 32.102 135.385 31.8148 136.192 31.7049L138.577 31.3566C139.03 31.2955 139.256 31.0756 139.256 30.6968C139.256 30.2325 139.097 29.8537 138.779 29.5605C138.461 29.2672 137.984 29.1206 137.348 29.1206C136.761 29.1206 136.296 29.2856 135.953 29.6155C135.611 29.9332 135.409 30.3608 135.348 30.8984L133.697 30.5135C133.782 29.6705 134.168 28.9862 134.853 28.4608C135.538 27.9232 136.357 27.6544 137.311 27.6544C138.559 27.6544 139.482 27.9598 140.082 28.5708C140.681 29.1695 140.981 29.9393 140.981 30.8801V35.2971C140.981 35.8225 141.017 36.3052 141.091 36.7451H139.403C139.342 36.3785 139.311 35.9814 139.311 35.5537C139.066 35.9447 138.706 36.2869 138.229 36.5801C137.764 36.8734 137.177 37.02 136.467 37.02C135.599 37.02 134.889 36.7634 134.339 36.2502C133.788 35.7248 133.513 35.1016 133.513 34.3807ZM136.706 35.5721C137.476 35.5721 138.094 35.3644 138.559 34.9489C139.024 34.5335 139.256 33.8737 139.256 32.9695V32.5663L136.559 32.9695C136.168 33.0306 135.856 33.1711 135.623 33.391C135.391 33.611 135.275 33.9103 135.275 34.2891C135.275 34.6312 135.403 34.9306 135.66 35.1872C135.929 35.4438 136.278 35.5721 136.706 35.5721ZM145.691 40.429H143.801L146.003 35.7737L142.205 27.9293H144.186L146.938 34.0142L149.58 27.9293H151.433L145.691 40.429Z" fill="white"></path><path opacity="0.6" d="M58.2713 16.6717V14.0953H55.797V14.9332H57.3627C57.3067 15.2823 56.9503 15.8967 56.0347 15.8967C55.2029 15.8967 54.469 15.3172 54.469 14.2001C54.469 13.0271 55.2798 12.5174 56.0277 12.5174C56.8315 12.5174 57.2438 13.0271 57.3696 13.467L58.2923 13.1388C58.0476 12.3777 57.3277 11.6167 56.0277 11.6167C54.6857 11.6167 53.4905 12.6012 53.4905 14.2001C53.4905 15.799 54.6298 16.7765 55.9648 16.7765C56.7126 16.7765 57.2019 16.4413 57.4256 16.1062L57.4885 16.6717H58.2713ZM63.6584 16.6717V15.7641H61.5197V14.619H63.4557V13.7602H61.5197V12.6291H63.6584V11.7214H60.5551V16.6717H63.6584ZM69.6642 12.6361V11.7214H65.5613V12.6361H67.127V16.6717H68.0985V12.6361H69.6642ZM75.6696 16.6717V11.7214H74.6911V16.6717H75.6696ZM81.7593 12.6361V11.7214H77.6565V12.6361H79.2221V16.6717H80.1937V12.6361H81.7593ZM87.4921 14.1931C87.4921 13.076 88.2749 12.5453 89.0368 12.5453C89.8056 12.5453 90.5884 13.076 90.5884 14.1931C90.5884 15.3102 89.8056 15.8409 89.0368 15.8409C88.2749 15.8409 87.4921 15.3102 87.4921 14.1931ZM86.4926 14.2001C86.4926 15.792 87.6948 16.7765 89.0368 16.7765C90.3857 16.7765 91.5879 15.792 91.5879 14.2001C91.5879 12.6012 90.3857 11.6167 89.0368 11.6167C87.6948 11.6167 86.4926 12.6012 86.4926 14.2001ZM97.9637 16.6717V11.7214H96.9992V14.996L94.9369 11.7214H93.7348V16.6717H94.6993V13.1597L96.9503 16.6717H97.9637Z" fill="white"></path><path d="M41.6068 23.6286L37.5333 21.2759L33.363 25.4462L37.533 29.6161L41.6206 27.2556C42.258 26.8683 42.6384 26.1918 42.6384 25.4462C42.6384 24.7005 42.2577 24.024 41.6068 23.6286Z" fill="#FFCE00"></path><path d="M33.3629 25.4461L22.0039 14.0054C21.6088 14.4004 21.3689 14.9365 21.3689 15.5292V35.3282C21.3689 35.9208 21.6088 36.4569 22.0039 36.8523L33.3629 25.4461Z" fill="url(#paint0_linear_418_416)"></path><path d="M33.3629 25.4462L37.5331 21.276L37.5398 21.2693L31.9521 18.0522L24.5863 13.7232C23.9231 13.3139 23.1188 13.2998 22.4414 13.6808C22.2862 13.7794 22.1449 13.8783 22.0039 14.0052L33.3629 25.4462Z" fill="#00F076"></path><path d="M22.0039 36.8522C22.1449 36.979 22.2862 37.078 22.4414 37.1766C22.7799 37.36 23.1329 37.4589 23.4856 37.4589C23.8665 37.4589 24.2334 37.3462 24.5722 37.1486L31.9518 32.8403L37.5395 29.6232L37.5328 29.6166L33.3629 25.4463L22.0039 36.8522Z" fill="#F63448"></path><defs><linearGradient id="paint0_linear_418_416" x1="16.2924" y1="31.1405" x2="27.7157" y2="19.7169" gradientUnits="userSpaceOnUse"><stop stop-color="#00E2FF"></stop><stop offset="1" stop-color="#00C5FF"></stop></linearGradient></defs></svg>